<svg width="16" height="22" viewBox="0 0 16 22" fill="none" xmlns="http://www.w3.org/2000/svg">
<g clip-path="url(#clip0_79807_680)">
<path fill-rule="evenodd" clip-rule="evenodd" d="M3.09068 9L3.5759 3.90519L3.66211 3H4.5714H11.4285H12.3378L12.424 3.90519L12.9093 9H14.5H15.6328L15.4922 10.124L14.4922 18.124L14.3828 19H13.5H2.49997H1.61719L1.50769 18.124L0.507692 10.124L0.367188 9H1.49997H3.09068ZM5.09973 9H10.9002L10.5193 5H5.48068L5.09973 9ZM3.38275 17L2.63275 11H13.3672L12.6172 17H3.38275ZM8.49997 12.5V15.5H10.5V12.5H8.49997ZM5.49997 15.5L5.49997 12.5H7.49997L7.49997 15.5H5.49997Z" fill="#BDBDBD"/>
</g>
<defs>
<clipPath id="clip0_79807_680">
<rect width="16" height="16" fill="white" transform="translate(0 3)"/>
</clipPath>
</defs>
</svg>
