<svg width="16" height="22" viewBox="0 0 16 22" fill="none" xmlns="http://www.w3.org/2000/svg">
<g clip-path="url(#clip0_79807_672)">
<path fill-rule="evenodd" clip-rule="evenodd" d="M11 9.5C11 11.9853 8.98528 14 6.5 14C4.01472 14 2 11.9853 2 9.5C2 7.01472 4.01472 5 6.5 5C8.98528 5 11 7.01472 11 9.5ZM10.3347 14.7489C9.25973 15.5356 7.9341 16 6.5 16C2.91015 16 0 13.0899 0 9.5C0 5.91015 2.91015 3 6.5 3C10.0899 3 13 5.91015 13 9.5C13 10.9341 12.5356 12.2597 11.7489 13.3347L15.7071 17.2929L14.2929 18.7071L10.3347 14.7489Z" fill="#BDBDBD"/>
</g>
<defs>
<clipPath id="clip0_79807_672">
<rect width="16" height="16" fill="white" transform="translate(0 3)"/>
</clipPath>
</defs>
</svg>
