<svg xmlns="http://www.w3.org/2000/svg" width="140" height="70" fill="none"><g clip-path="url(#a)"><path fill="#81B3D3" d="M140 0H0l60.362 65.7c5.276 5.8 14 5.8 19.276 0L140 0Z"/><path fill="#23A9E1" d="m37.232.5 32.565 37.9L102.261.7 37.231.5Z"/><path fill="#fff" d="M61.986 14.7h17.55c-1.319-.8-4.463-4.6-6.087-3.2-.101.1-4.97-5.7-8.116-2.9-2.739 2.5-4.058-.3-7.101 1.6-3.652 2.4 2.029 3.7 3.754 4.5Zm27.087-3.5-9.942.1c3.956-4.5 5.68-4 9.942-.1Z"/><path fill="#491213" d="M99.014 3.6V1.2h2.131l-2.13 2.4ZM49.102 13c.102.1 2.435-2.4 6.189-4.9 3.45-2.3 8.724-4.9 14.608-4.9 5.885 0 11.261 2.7 14.71 5 3.754 2.4 6.088 4.8 6.19 4.9l-2.537 3c-4.565.6-7.812 3.9-12.275 3.2-2.232-.4-2.334-1.6-2.943-2.9-.507-1-1.318-.8-2.333-1.2-.913-.4-1.522-1.1-3.45-.7-1.622.4-1.825 2.9-3.956 2.8-1.116-.1-1.217-1.6-2.84-3.6-4.16-4.9-7.953-4.29-10.591.21l-.772-.91ZM40.58 1.2v1.9l-1.623-1.9h1.623Zm54.68 0h3.247v3L95.261 8V1.2Zm-4.159 11.4V1.2h3.551v7.4l-3.55 4Zm-.507-10.4v9.9a26.327 26.327 0 0 0-3.652-3l3.652-6.9Zm-4.16-.3v6.8c-.507-.3-.912-.7-1.521-1-.71-.4-1.42-.9-2.232-1.3l3.754-4.5Zm-4.463-.2V6c-1.014-.5-2.13-1-3.145-1.5l3.145-2.8Zm.609-.5h3.753L82.58 5.8V1.2Zm4.362 0h3.652l-3.652 7.1V1.2Zm-8.927 0h3.956l-3.55 3.1c-.102 0-.204-.1-.305-.1l-.102-3Zm-.508.4V4c-1.014-.4-2.029-.7-3.145-.9l3.145-1.5Zm-4.26 0v1.3c-.71-.1-1.42-.2-2.233-.3l2.232-1Zm-6.9 0 2.233 1c-.812 0-1.522.1-2.232.3V1.6Zm-4.159 0 3.145 1.5c-1.116.2-2.13.5-3.145.9V1.6Zm3.653 1.2-3.348-1.6h3.348v1.6Zm3.55-.4-2.84-1.3h2.84v1.3Zm.71-1.2h2.942l-2.942 1.3V1.2Zm3.754 0h3.246l-3.246 1.6V1.2Zm-12.58 3.1-3.55-3.1h3.956v3l-.406.1Zm-3.652-2.6 3.145 2.7c-1.116.4-2.13.9-3.145 1.5V1.7Zm-4.362.2 3.652 4.5c-1.319.7-2.536 1.5-3.652 2.4V1.9ZM49 2.2l3.652 7c-1.319 1-2.536 2-3.652 3.2V2.2Zm3.754 6L49.1 1.1h3.653v7.1Zm4.362-2.5-3.754-4.6h3.754v4.6ZM44.333 7.5l-3.246-3.8V1.2h3.246v6.3Zm.609-6.3h3.55v11.2l-3.55-4.2v-7ZM36.522 0v14.6L70 54.5 103.478 15V0H36.522Z"/><path fill="#23A9E1" d="M67.362 46 70 41.8l2.638 4.2L70 50.2 67.362 46Z"/><path fill="#DC6243" d="M75.275 30.6c-3.449-2-2.637-3.5.203-4.9 1.522-.7 4.87-3.4 6.189-2.5l-6.392 7.4Zm-2.333 2.5c-2.029-.1-4.362-.4-6.391.1 1.217.3 4.26 1.2 1.42 1.9 1.014 1.4 2.638 1.3 3.652.1-.406-.2-.71-.5-1.014-.7 1.116-.3 2.13-.9 2.333-1.4Zm1.217-1.6c-.913-.8-1.927-.8-2.739 0-1.217-2.1-5.478-1.4-7.507-1.7 1.116 2.6 9.74 3.1 10.246 1.7Zm-6.898-2.2c-1.623-.5-6.899-.4-3.45-1.8 1.116-.4 6.798.1 3.45 1.8Zm2.029-3c-.508-1.1.406-2.4 1.724-1.4 1.218.8-.608 2-1.724 1.4Zm-2.942.1c-2.334.7-5.377-.8-1.623-1.5 2.333-.5 4.768.5 1.623 1.5.101 0-.102 0 0 0Zm-2.638-6.2c-.507 1.6-1.522 1.9-1.42 0 .101-2.3 1.623-1.7 3.246-2.6 1.319-.7 2.03-3.4 4.362-1.8 1.015.7 2.232.1 2.537 1.2 0-.1-2.942 6.7-1.32 6.7-3.245 0-1.825-3.8-.608-6.4-1.217.6-3.145 4.3-1.522 5-.811 1.1-3.449 2.6-4.768 1.5-1.116-1-.507-2.3-.507-3.6ZM59.652 23c-5.681 0-1.826-8.6.102-8.1 2.231.7 1.927 8.2-.102 8.1Zm-6.29-8.2c-2.637-.1-1.522-2.6.305-3.1 1.724-.5 5.275 1.1 6.492 2.2-1.826.6-4.16.5-6.188.6-.203-2-.71-1.3-.609.3Z"/><path fill="#F49774" d="M72.84 25.8c-2.941-3 4.363-2.7 5.58-3.8.812.3 7.102-5.4 8.623-5-1.115 1.3-3.449 5.3-5.072 5.3-1.319 0-2.638-.2-3.652.7-1.522 1.4-3.957 2.1-5.478 2.8Z"/><path fill="#F4B1A4" d="M73.754 22.2c-1.624.9-3.145-2.5-.305-2.2 1.826.2 3.754-.2 5.479.1-1.32 1.5-3.145 2.3-5.174 2.1Z"/><path fill="#fff" d="M51.84 20.9c.305.4.61.8.508 1.4 0 .4-.609 1-.203 1.2l1.522-1.8c-.406-.1-3.551-3.8-3.551-4.2l-2.13 1.1c.101.4.811 0 1.217 0 .507 0 .913.4 1.319.7-1.116.9-3.855 3.3-4.16 3.3-.101 0-.71-.4-.71 0 0 .2.609.7.71.8l1.42 1.7c.407-.2-.1-.5.102-.8.102-.2 3.246-2.7 3.957-3.4Zm-3.449-4.5c.305-.1.406.3.609 0l-1.623-1.9c-.203-.3-.507-.6-.507 0 .101.4-4.058 3.7-4.261 3.8-.305.1-.508-.3-.71.1.507.6.913 1.1 1.42 1.7.203.2.304.4.507.6.203.2.102-.4.102-.4-.102-.3.304-.6.608-.8 1.015-1 3.551-3.1 3.855-3.1Zm-5.782-.6c-1.116.3-2.435-.1-2.74-1.3-.405-1.2.406-2.4 1.32-3.1.913-.7 2.333-.6 2.84.5.203.5.101 1.1-.101 1.6-.102.3-.406.6 0 .8.608-.7 1.116-1.4 1.724-2.1-.71-.4-1.014-1.1-1.522-1.7-.608-.7-1.318-1.4-2.333-1.5-1.927-.3-3.652 1.7-3.855 3.4-.101.9.203 1.8.812 2.6.507.6 1.217 1.1 1.623 1.8.203.1 1.826-.7 2.13-.8.203 0 .102-.1.102-.2-.508.2 0 0 0 0Zm25.87 23.6c-.71-.5-2.638-3-3.044-3.5l-.203-.3-.203.1c-.101.1.102.4 0 .6-.507.8-3.754 3.2-3.956 3.4-.406.2-.812-.1-1.015.2.507.6 1.826 2.3 2.029 2.3.304 0 .101-.5.101-.6.102-.2 1.725-1.6 2.334-2.1.203-.2.406.3.608.5.203.3.305.7.203 1-.101.2-.507.6-.203.8.406-.5 1.522-1.8 1.725-2 .203-.2-.406 0-.304-.1-.203.1-.508.2-.71 0-.102 0-.71-.7-.61-.8.305-.2.61-.6 1.015-.7.61-.1 1.015 1 1.116 1.4.102.4.102.8-.101 1.1-.102.3-.304.5 0 .6l1.42-1.9c0 .1-.101.1-.203 0-.101 0 .102.1 0 0Zm-9.334-8.9c-.71 0-1.42.3-2.029.8-1.42 1.2-1.623 3.3-.507 4.8 1.319 1.7 3.449 1.9 5.174.7 1.42-1.2 1.623-3.3.507-4.8-.812-1-2.03-1.5-3.145-1.5Zm1.217 1.4c.913-.1 1.522.8 1.116 1.8-.406 1-1.42 2-2.434 2.4-1.218.5-2.03-.5-1.522-1.7.406-1 1.42-2 2.435-2.4.101 0 .203-.1.405-.1Zm-2.84-4.6c.304 0 .608.4.811 0l-1.42-1.7c-.406.2 0 .4-.101.6-.203.3-1.725.5-2.13.6.1-.4.608-1.7.81-1.8.407-.3.61.3.812-.1l-1.826-2.1c-.203-.2-.406-.7-.608-.4 0 0 0 1-.102 1.1-.101.2-.608 2.4-1.217 2.9-.305.3-1.522 1.3-1.826 1.4-.305.1-.508-.4-.812 0l1.623 1.9c.102.1.406.6.508.6.304.1 0-.6.101-.7.101-.3 1.623-1.8 2.333-1.9.913-.2 2.03-.5 3.044-.4.203 0-.203 0 0 0Zm24.55 6.7c.102.4.203.9.102 1.3-.102.6-.609 1.9-1.42 1.5-.812-.4-1.42-1.1-2.13-1.7.507-.6 1.014-1.1 1.927-.8.203.1.406 0 .203-.2-.305-.2-2.03-1.3-2.13-1.2-.204.2.304.6.1 1-.1.3-.405.5-.608.8-.507-.4-1.217-.8-.71-1.5.406-.4.811-.8 1.42-.9.406-.1 1.218.3 1.319-.1-.71-.3-1.42-.7-2.13-1 .101.5-2.232 2.9-2.74 3.5-.101.1-.405.4-.405.5 0 .3.405.1.405.1.305-.1 4.464 3.3 4.566 3.6.101.2-.102.4 0 .5 0 0 .101.1.203.1.304-.3 2.942-3.9 3.55-4l-1.521-2.4c-.406.2-.102.7 0 .9Zm-4.058 4.4c-1.318-.9-3.652.8-4.057 1-.71.3-1.218-.4-.812-1 .304-.5.913-.8 1.522-.8.203 0 .913.1.913 0 .101-.1.101-.1 0-.2-.609-.4-1.116-.8-1.725-1.1-.101.7-.913 1.1-1.319 1.6-.507.6-1.014 1.3-1.014 2s.406 1.4 1.116 1.7c.71.4 1.521.1 2.232-.3.405-.3.811-.6 1.217-.8.609-.3 1.522 0 1.319.8-.203.7-.913 1.3-1.623 1.5-.406.1-.812.1-1.218-.1-.304-.1-.608-.5-.811-.1l2.333 1.6c.102-.5.304-.7.71-1 .507-.4.913-.9 1.319-1.4.812-.9 1.116-2.5-.102-3.4ZM95.87 10.3c0 .1 0 .1 0 0l-.913 1-.812 1c-.203.2-.304.3 0 .5.507-.3 3.55 4.8 3.348 5.5-.507.2-4.565-3.3-4.667-3.5 0-.1.203-.7-.101-.6-.102 0-.508.6-.609.7l-.609.7c.203.3.305 0 .609 0 .203.1 1.217.9 1.522 1.1-.508 0-1.725.1-1.928.1-.608.1-.304-.4-.71-.6L89.478 18l-.913 1v.1c.203.2.102.1.406 0 .304-.1 4.362 3.2 4.464 3.4.203.3-.102.6.304.8l1.218-1.4c.101-.1.101-.1 0-.1-.305-.2-.305.1-.71.1-.305-.1-2.943-2.2-3.856-3l5.377-.2c.203 0 .71.6.71.8-.101.2-.304.4 0 .5.305-.4.609-.7.913-1.1l.102-.2c.101 0 .101-.1.101-.2l.102-.1c.304-.3 1.217-1.3 1.116-1.4-.305-.3-.406.3-.812 0-.203-.2-.812-1.2-.913-1.4-.203-.3.406-.6.609-.7.507-.3 2.13-.8 2.333.2 0 .2-.203.4-.101.5 0 0 .101.2.202.1l2.131-2.6-.203-.2c-.507.5-5.58-1.5-5.884-1.8-.102-.2-.102-.8-.304-.8Zm-.203 2.6c.811.3 1.521.6 2.333 1l-.609.3c-.203.1-.405.3-.608.5l-1.116-1.8Zm-6.696 7.7c-1.116-.1-2.232.4-3.043 1.3-1.218 1.5-1.116 3.7.405 4.9 1.522 1.2 3.754.9 4.971-.5 1.218-1.5 1.116-3.7-.405-4.9-.508-.4-1.218-.7-1.928-.8Zm-1.42 1.6c.608 0 1.319.4 1.724.7.812.5 2.232 1.7 1.522 2.7 0-.1.102-.1-.101.1-.812.8-2.232.1-2.942-.5-.71-.5-2.03-1.7-1.218-2.7.305-.2.609-.3 1.015-.3Zm-3.145 4.3c-1.218-.1-2.435.5-3.348 1.6-.609.8-1.319 1.5-1.928 2.3.203.3.508-.1.812.1.304.2 4.16 3.3 4.16 3.5.1.3-.203.4.1.6.102.1 2.943-3.4 3.247-4a2.94 2.94 0 0 0-.811-3.2c.101.1.203.1 0 0-.812-.6-1.522-.9-2.232-.9Zm-1.116 1.6h.304c1.42.4 3.45 2.1 2.13 3.6l-.405.4c-.203.2-4.261-3-4.058-3.2.406-.5 1.319-.9 2.029-.8Z"/></g><defs><clipPath id="a"><path fill="#fff" d="M0 0h140v70H0z"/></clipPath></defs></svg>